<?xml version="1.0" standalone="no"?><!DOCTYPE svg PUBLIC "-//W3C//DTD SVG 1.1//EN" "http://www.w3.org/Graphics/SVG/1.1/DTD/svg11.dtd"><svg t="1644470349572" class="icon" viewBox="0 0 1024 1024" version="1.1" xmlns="http://www.w3.org/2000/svg" p-id="5025" xmlns:xlink="http://www.w3.org/1999/xlink" width="200" height="200"><defs><style type="text/css"></style></defs><path d="M981.333333 42.666667H298.666667a42.666667 42.666667 0 0 0-42.666667 42.666666v853.333334a42.666667 42.666667 0 0 0 42.666667 42.666666h469.333333l256-768V85.333333a42.666667 42.666667 0 0 0-42.666667-42.666666z" fill="#CA64EA" p-id="5026"></path><path d="M590.208 256H256v597.333333h324.437333A64 64 0 0 0 640 795.562667V305.749333A49.92 49.92 0 0 0 590.208 256z" opacity=".75" p-id="5027"></path><path d="M0 213.333333m49.792 0l497.749333 0q49.792 0 49.792 49.792l0 497.749334q0 49.792-49.792 49.792l-497.749333 0q-49.792 0-49.792-49.792l0-497.749334q0-49.792 49.792-49.792Z" fill="#7719AA" p-id="5028"></path><path d="M140.714667 341.333333h72.746666l125.44 220.288a288.853333 288.853333 0 0 1 14.165334 32.725334h0.896a324.266667 324.266667 0 0 1-2.090667-45.312V341.333333h62.08v341.333334H345.856l-130.304-227.029334a175.36 175.36 0 0 1-13.226667-23.466666h-1.152a465.493333 465.493333 0 0 1 1.834667 49.706666V682.666667h-62.293333z" fill="#FFFFFF" p-id="5029"></path><path d="M1024 213.333333h-256v256l128 77.269334L1024 469.333333V213.333333z" fill="#AE4BD5" p-id="5030"></path><path d="M1024 469.333333h-256v256l128 90.709334L1024 725.333333v-256z" fill="#9332BF" p-id="5031"></path><path d="M768 725.333333v256h213.333333a42.666667 42.666667 0 0 0 42.666667-42.666666v-213.333334z" fill="#7719AA" p-id="5032"></path></svg>