<?xml version="1.0" standalone="no"?><!DOCTYPE svg PUBLIC "-//W3C//DTD SVG 1.1//EN" "http://www.w3.org/Graphics/SVG/1.1/DTD/svg11.dtd"><svg t="1644543397099" class="icon" viewBox="0 0 1024 1024" version="1.1" xmlns="http://www.w3.org/2000/svg" p-id="6603" xmlns:xlink="http://www.w3.org/1999/xlink" width="200" height="200"><defs><style type="text/css"></style></defs><path d="M700.82 700.93H323.17V323.28h377.65v377.65z m-313.65-64h249.65V387.28H387.17v249.65z" p-id="6604" fill="#AE4BD5"></path><path d="M927.55 399.67v-54.56c0-2.61-2.11-4.72-4.72-4.72h-93.04v-114.7c0-17.33-14.05-31.38-31.38-31.38H686.95v-90.96c0-2.61-2.11-4.72-4.72-4.72h-54.56c-2.61 0-4.72 2.11-4.72 4.72v90.96h-80.07v-90.96c0-2.61-2.11-4.72-4.72-4.72H483.6c-2.61 0-4.72 2.11-4.72 4.72v90.96h-80.07v-90.96c0-2.61-2.11-4.72-4.72-4.72h-54.56c-2.61 0-4.72 2.11-4.72 4.72v90.96H319.8c-8.31 0-16.28 3.3-22.17 9.17l-94.23 94.05a31.38 31.38 0 0 0-9.21 22.21v20.66h-90.82c-2.61 0-4.72 2.11-4.72 4.72v54.56c0 2.61 2.11 4.72 4.72 4.72h90.82v80.07h-90.82c-2.61 0-4.72 2.11-4.72 4.72v54.56c0 2.61 2.11 4.72 4.72 4.72h90.82v80.07h-90.82c-2.61 0-4.72 2.11-4.72 4.72v54.56c0 2.61 2.11 4.72 4.72 4.72h90.82v106c0 17.33 14.05 31.38 31.38 31.38h109.25v90.64c0 2.61 2.11 4.72 4.72 4.72h54.56c2.61 0 4.72-2.11 4.72-4.72V829.9h80.07v90.64c0 2.61 2.11 4.72 4.72 4.72h54.56c2.61 0 4.72-2.11 4.72-4.72V829.9h80.07v90.64c0 2.61 2.11 4.72 4.72 4.72h54.56c2.61 0 4.72-2.11 4.72-4.72V829.9h16.64c8.28 0 16.22-3.27 22.1-9.1l94.82-94.04a31.372 31.372 0 0 0 9.28-22.28v-11.95h93.04c2.61 0 4.72-2.11 4.72-4.72v-54.56c0-2.61-2.11-4.72-4.72-4.72H829.8v-80.07h97.76v-59.28c0-2.61-2.11-4.72-4.72-4.72H829.8v-80.07h93.04c2.6 0 4.71-2.11 4.71-4.72zM765.79 690.89l-75.64 75.01H258.19V333.27l75.1-74.96h432.49v432.58z" p-id="6605" fill="#AE4BD5"></path></svg>